# xmcd CD database file
#
# Track frame offsets:
#	150
#	16276
#	37019
#	56659
#	76107
#	94858
#	107525
#	127614
#	146992
#	161660
#	179538
#	211379
#	224764
#	242088
#	254748
#	279295
#
# Disc length: 3989 seconds
#
# Revision: 0
# Processed by: cddbd v1.5.1PL2 Copyright (c) Steve Scherf et al.
# Submitted via: CDex 1.51
#
DISCID=e90f9310
DTITLE=TRADITIONAL JAZZ BAND - BROADWAY VOL 5
DYEAR=2002
DGENRE=Jazz
TTITLE0=AIN'T MISBEHAVIN
TTITLE1=STEALIN APPLES
TTITLE2=YOUR FEET'S TOO BIG
TTITLE3=I'M CONFESSING
TTITLE4=HONEYSUCKLE ROSE
TTITLE5=I'VE GOT A FEELING I'M FALLING
TTITLE6=SQUEEZE ME
TTITLE7=I'M GONNA SIT RIGHT DOWN AND
TTITLE8=SWEET SUE JUST YOU
TTITLE9=KEEPING OUT OF MISHIF NOW
TTITLE10=I CAN'T GIVE YOU ANYTHIG BUT LOVE
TTITLE11=EVERYBODY LOVES MY BABY
TTITLE12=IT'S A SIN TO TELL A LIE
TTITLE13=DINAH
TTITLE14=BLACK AND BLUE
TTITLE15=SHEIK OF ARABY
EXTD=YEAR: 2002
EXTT0=
EXTT1=
EXTT2=
EXTT3=
EXTT4=
EXTT5=
EXTT6=
EXTT7=
EXTT8=
EXTT9=
EXTT10=
EXTT11=
EXTT12=
EXTT13=
EXTT14=
EXTT15=
PLAYORDER=
